<svg xmlns="http://www.w3.org/2000/svg" width="144.083" height="144"><path d="M72.04 14.165c-31.94 0-57.833 25.894-57.833 57.834 0 31.939 25.893 57.836 57.833 57.836 31.941 0 57.835-25.896 57.835-57.836 0-31.94-25.894-57.834-57.835-57.834zm28.232 43.466s1.375 6.815-3.559 18.787c-4.936 11.972-17.15 23.297-33.974 24.349-16.825 1.051-25.887-6.391-25.887-6.391 12.62.971 18.201-4.206 21.194-5.905-11.729-1.537-13.428-10.354-13.428-10.354 1.132.486 4.61.324 6.471-.161-11.485-2.831-11.728-14.398-11.728-14.398s4.286 2.184 6.713 1.779c-11.083-8.413-4.61-19.414-4.61-19.414C56.105 61.94 71.635 61.05 71.635 61.05l.07.105a14.51 14.51 0 0 1-.434-3.523c0-8.008 6.492-14.499 14.5-14.499 4.23 0 8.037 1.813 10.688 4.703l.092-.052c5.176-.324 8.979-3.074 8.979-3.074-1.576 4.604-4.924 6.749-6.322 7.471l.051.128c1.809-.438 6.662-1.625 7.971-2.017-2.833 5.176-6.958 7.339-6.958 7.339z"/></svg>